<?xml version="1.0" encoding="UTF-8" standalone="no"?>
<!-- Created with Inkscape (http://www.inkscape.org/) -->
<svg xmlns:rdf="http://www.w3.org/1999/02/22-rdf-syntax-ns#" xmlns="http://www.w3.org/2000/svg" xmlns:i="http://ns.adobe.com/AdobeIllustrator/10.0/" xmlns:cc="http://web.resource.org/cc/" xmlns:xlink="http://www.w3.org/1999/xlink" xmlns:dc="http://purl.org/dc/elements/1.1/" xmlns:svg="http://www.w3.org/2000/svg" xmlns:inkscape="http://www.inkscape.org/namespaces/inkscape" xmlns:sodipodi="http://sodipodi.sourceforge.net/DTD/sodipodi-0.dtd" xmlns:ns1="http://sozi.baierouge.fr" id="svg2" version="1.0" viewBox="0 0 131.628 272.667" inkscape:version="0.91 r13725">
  <g id="g3294">
    <path id="path15" style="stroke:#000000;stroke-width:.036;stroke-miterlimit:10;fill-rule:evenodd" d="m103.6 111.3l2.16 24.62 6.77 15.08 4.61 32.66 8.31 9.86-1.51 13.54-8.03 13.86 0.61 16.02 13.25 5.83-0.29 8.96-14.79-1.87v7.09l2.16 5.55-6.48 9.25-10.766 0.9-6.769-6.77 4.608-9.86-1.836-13.86-12.348-6.45-3.673-7.09-12.023-0.32-1.224 24.33-5.868 12.31-6.156 7.71-15.372-0.29-3.096-10.8 12.636-3.06 1.224-5.87-13.86-1.83-0.936-8.32 4.032-5.54-0.648-40.04 9.864-15.08 3.708-44.96 7.38-6.81-1.224-20.01-13.86-8 12.312-26.167 12.312-3.384 13.248-7.416 20.625 0.612 4.94 7.092 20.01 1.224 4 12.96-8.61 14.469-19.4 9.87z"/>
    <path id="path17" style="fill-rule:evenodd;stroke:#000000;stroke-miterlimit:10;stroke-width:.036;fill:#ffffff" d="m125.81 91.857l-11.81 9.183-10.65 2.3 11.66-6.623 13.14-11.34-3.67-0.828-6.05-9.864-13.17-1.116-4.22-6.48-19.292-0.18-11.628 7.452 8.136 14.364 3.816 25.275-7.344 4.5-15.444-7.49 1.476 20.3-6.3 5.98-2.664 30.13-1.008 16.16-10.332 14.98 0.864 29.59-0.18 10.01-3.312 4.47-0.504 5.5 11.952 1.84 1.008-25.81-1.476-20.63 4.464 10.66-0.972 22.31-2.664 23.37-10.836 2.81 1.656 7.48 11.988 0.51 11.34-17.46 1.98-26.97 14.796 0.19 5.832 8.81 9.468 3.82 0.504-26.78 1.008-7.31 1.656 19.29-1.477 17.46 1.98 14.15-4.14 8.46 4.319 6.16 8.32-0.15 6.3-8.17-1.48-3.81 0.32-17.46 0.33-21.46-0.65-26.32 2.34-0.14 0.14 23.44 6.34-10.62 1.48-12.17-7.96-9.47-2.84-18.97-1.98-14.37-7.02-15.15-1.98-26.1 19.8-8.5 4.64-9.213z"/>
    <path id="path19" style="stroke:#000000;stroke-width:.036;stroke-miterlimit:10;fill-rule:evenodd" d="m92.225 71.625l-8.316 9.144 6.66-2.16 4.464 1.152 3.024-3.312-1.836-4.32-3.996-0.504z"/>
    <path id="path21" style="fill-rule:evenodd;stroke:#000000;stroke-miterlimit:10;stroke-width:.036;fill:#ffffff" d="m67.924 74.433l-10.151 3.492-10.476 24.155 27.251 14.44 5.005-3.32-3.816-24.943-7.813-13.824z"/>
    <path id="path23" style="fill-rule:evenodd;stroke:#000000;stroke-miterlimit:10;stroke-width:.036;fill:#ffffff" d="m116.67 238.88l11.3 4.68-0.47 6.81-11.34-1.66 0.51-9.83z"/>
    <path id="path25" style="stroke:#000000;stroke-width:.036;stroke-miterlimit:10;fill-rule:evenodd" d="m107.78 133.11l-9.292 13.21-17.496 7.28-0.647 18.5-5.652-19.8-10.224-2.34-12.24-15.52-4.968 32.37-12.888 21.17-3.276 29.41 23.112-12.57 17.856 16.2 21.492-10.58h23.473l10.91-13.54-9.62-17.53-3.96-36.68-6.58-9.58z"/>
    <path id="path27" style="fill-rule:evenodd;stroke:#000000;stroke-miterlimit:10;stroke-width:.036;fill:#ffffff" d="m83.98 154.6l4.284 8.93 0.144 5.01 0.504 15.8 14.218-23.47-4.642-11.23-14.508 4.96z"/>
    <path id="path29" style="fill-rule:evenodd;stroke:#000000;stroke-miterlimit:10;stroke-width:.036;fill:#ffffff" d="m71.74 154.28l-10.26-1.98-2.628 8.24-0.324 19.84 14.868-4.97-1.656-21.13z"/>
    <path id="path31" style="fill-rule:evenodd;stroke:#000000;stroke-miterlimit:10;stroke-width:.036;fill:#ffffff" d="m59.824 149.96l-6.264-8.24-2.664 23.47-14.868 23.79-1.98 22.79 16.524-8.24 1.98-8.28 4.32 8.6 15.192 13.54 3.312-10.59 1.98 8.28 13.212-6.3 1.656-11.23 5.939 10.59 15.877-1.34 9.58-10.22-9.58-16.88-1.33-34.67-3.96-7.96-9.579 10.59 7.269 12.56-19.509 30.06-0.324-16.85-2.628-10.22-1.332 13.86-7.272-7.6 0.324 6.95-20.484 6.59 0.972-22.47 3.637-10.58z"/>
    <path id="path33" style="stroke:#000000;stroke-width:.036;stroke-miterlimit:10;fill-rule:evenodd" d="m111.41 61.725l9.9 1.979 1.98 4.644-10.26 2.052-35.675-0.972-16.847 17.749-25.452 16.203-15.228-13.575 21.492-17.82 15.876-6.192-13.536-25.812-15.228-22.464-28.404-0.972 7.92-16.524 41.652 9.9 25.776 29.088 20.16 22.788 15.874-0.072z"/>
    <path id="path35" style="fill-rule:evenodd;stroke:#000000;stroke-miterlimit:10;stroke-width:.036;fill:#ffffff" d="m114.04 68.097l-36.359-2.664-13.861 13.896-22.824 15.876-9.252-1.008-3.312-5.616 11.916-12.563 24.444-10.224-16.523-23.473-14.545-23.472 4.968-5.616-14.22 1.98-15.876-1.98 2.988-9.936 36.36 8.604-6.3 8.928 8.928-3.96-3.312 7.92 7.632-2.952 19.476 22.14 19.512 19.476 23.15 1.008 2.3 1.332-5.29 2.304z"/>
    <path id="path37" style="stroke:#000000;stroke-width:.036;stroke-miterlimit:10;fill-rule:evenodd" d="m80.236 57.009l5.364-4.212-8.316-0.756-2.376-6.876-2.592 8.352-7.848-0.504 8.424 3.924v9.036l4.031-7.452 4.86 4.392-1.547-5.904z"/>
    <path id="path39" style="fill-rule:evenodd;stroke:#000000;stroke-miterlimit:10;stroke-width:.036;fill:#ffffff" d="m79.048 56.037l3.168-2.304-5.508-0.108-1.691-4.896-1.188 5.508-5.364-0.396 5.688 2.772-0.612 5.436 2.844-5.076 3.601 3.24-0.938-4.176z"/>
    <path id="path41" style="stroke:#000000;stroke-width:.036;stroke-miterlimit:10;fill-rule:evenodd" d="m109.97 191.18l5.4-4.21-8.35-0.72-2.34-6.88-2.59 8.32-7.887-0.51 8.427 3.93v9.07l4.03-7.49 4.86 4.43-1.55-5.94z"/>
    <path id="path43" style="fill-rule:evenodd;stroke:#000000;stroke-miterlimit:10;stroke-width:.036;fill:#ffffff" d="m108.78 190.24l3.17-2.34-5.51-0.1-1.65-4.86-1.23 5.51-5.324-0.4 5.654 2.74-0.61 5.43 2.84-5.07 3.6 3.24-0.94-4.15z"/>
    <path id="path45" style="stroke:#000000;stroke-width:.036;stroke-miterlimit:10;fill-rule:evenodd" d="m72.641 196.47l5.363-4.21-8.315-0.72-2.376-6.88-2.592 8.32-7.848-0.5 8.424 3.92v9.04l3.996-7.46 4.896 4.43-1.548-5.94z"/>
    <path id="path47" style="fill-rule:evenodd;stroke:#000000;stroke-miterlimit:10;stroke-width:.036;fill:#ffffff" d="m71.452 195.54l3.168-2.34-5.508-0.11-1.692-4.86-1.188 5.47-5.364-0.36 5.688 2.74-0.612 5.44 2.844-5.08 3.564 3.24-0.9-4.14z"/>
    <path id="path49" style="stroke:#000000;stroke-width:.036;stroke-miterlimit:10;fill-rule:evenodd" d="m49.168 179.95l5.364-4.21-8.316-0.72 0.144-5.76-4.14 7.23-1.836 2.41 1.44 0.98v9.03l4.032-7.45 4.86 4.43-1.548-5.94z"/>
    <path id="path51" style="fill-rule:evenodd;stroke:#000000;stroke-miterlimit:10;stroke-width:.036;fill:#ffffff" d="m47.98 179.01l3.168-2.34-5.508-0.11-0.432-2.98-3.42 5.44 1.296 0.53-0.612 5.44 2.844-5.08 3.6 3.24-0.936-4.14z"/>
    <path id="path53" style="stroke:#000000;stroke-width:.036;stroke-miterlimit:10;fill-rule:evenodd" d="m54.1 85.089l5.364-4.176-8.316-0.756-2.376-6.876-2.556 8.352-7.884-0.54 8.424 3.924v9.072l4.032-7.452 4.104 2.844-0.792-4.392z"/>
    <path id="path55" style="fill-rule:evenodd;stroke:#000000;stroke-miterlimit:10;stroke-width:.036;fill:#ffffff" d="m52.912 84.153l3.168-2.34-5.508-0.072-1.692-4.896-1.188 5.508-5.364-0.396 5.688 2.772-0.612 5.4 2.844-5.076 2.448 1.908 0.828-0.54-0.612-2.268z"/>
    <path id="path57" style="stroke:#000000;stroke-width:.036;stroke-miterlimit:10;fill-rule:evenodd" d="m50.176 36.201l5.364-4.212-8.316-0.756-2.376-6.876-2.592 8.352-3.744-0.828 4.32 4.212 2.916 6.156 1.08-4.536 4.896 4.392-1.548-5.904z"/>
    <path id="path59" style="fill-rule:evenodd;stroke:#000000;stroke-miterlimit:10;stroke-width:.036;fill:#ffffff" d="m48.952 35.229l3.168-2.34-5.472-0.072-1.692-4.896-1.188 5.508-1.188-0.36 1.476 2.736 1.26 2.124 0.972-1.764 3.6 3.204-0.936-4.14z"/>
    <path id="path61" style="stroke:#000000;stroke-width:.036;stroke-miterlimit:10;fill-rule:evenodd" d="m115.7 159.86l-0.58-3.92-1.48-1.08-2.37-6.88-2.59 8.32-7.85-0.51 8.42 3.93v9.03l4.03-7.45 2.92 4.28-0.5-5.72z"/>
    <path id="path63" style="fill-rule:evenodd;stroke:#000000;stroke-miterlimit:10;stroke-width:.036;fill:#ffffff" d="m113.57 158.78v-2.38h-0.5l-1.69-4.86-1.19 5.48-5.37-0.4 5.69 2.77-0.61 5.44 2.84-5.08 0.72 0.72 0.11-1.69z"/>
  </g>
  <metadata>
    <rdf:RDF>
      <cc:Work>
        <dc:format>image/svg+xml</dc:format>
        <dc:type rdf:resource="http://purl.org/dc/dcmitype/StillImage"/>
        <cc:license rdf:resource="http://creativecommons.org/licenses/publicdomain/"/>
        <dc:publisher>
          <cc:Agent rdf:about="http://openclipart.org/">
            <dc:title>Openclipart</dc:title>
          </cc:Agent>
        </dc:publisher>
        <dc:title>Dog (Simple Drawing)</dc:title>
        <dc:date>2007-11-14T23:29:26</dc:date>
        <dc:description/>
        <dc:source>https://openclipart.org/detail/8503/dog-(simple-drawing)-by-gerald_g-8503</dc:source>
        <dc:creator>
          <cc:Agent>
            <dc:title>Gerald_G</dc:title>
          </cc:Agent>
        </dc:creator>
        <dc:subject>
          <rdf:Bag>
            <rdf:li>colouring book</rdf:li>
            <rdf:li>costume</rdf:li>
            <rdf:li>dog</rdf:li>
            <rdf:li>mammal</rdf:li>
            <rdf:li>manimal</rdf:li>
            <rdf:li>pet</rdf:li>
            <rdf:li>wizard</rdf:li>
          </rdf:Bag>
        </dc:subject>
      </cc:Work>
      <cc:License rdf:about="http://creativecommons.org/licenses/publicdomain/">
        <cc:permits rdf:resource="http://creativecommons.org/ns#Reproduction"/>
        <cc:permits rdf:resource="http://creativecommons.org/ns#Distribution"/>
        <cc:permits rdf:resource="http://creativecommons.org/ns#DerivativeWorks"/>
      </cc:License>
    </rdf:RDF>
  </metadata>
</svg>
